<?xml version="1.0" encoding="UTF-8" standalone="no"?>
<!-- Generator: Adobe Illustrator 24.2.3, SVG Export Plug-In . SVG Version: 6.00 Build 0)  -->

<svg
   xmlns:dc="http://purl.org/dc/elements/1.1/"
   xmlns:cc="http://creativecommons.org/ns#"
   xmlns:rdf="http://www.w3.org/1999/02/22-rdf-syntax-ns#"
   xmlns:svg="http://www.w3.org/2000/svg"
   xmlns="http://www.w3.org/2000/svg"
   xmlns:sodipodi="http://sodipodi.sourceforge.net/DTD/sodipodi-0.dtd"
   xmlns:inkscape="http://www.inkscape.org/namespaces/inkscape"
   version="1.1"
   id="Layer_1"
   x="0px"
   y="0px"
   viewBox="0 0 150.00001 23.437918"
   xml:space="preserve"
   sodipodi:docname="logo.svg"
   width="150"
   height="23.437918"
   inkscape:version="0.92.5 (2060ec1f9f, 2020-04-08)"><metadata
   id="metadata39"><rdf:RDF><cc:Work
       rdf:about=""><dc:format>image/svg+xml</dc:format><dc:type
         rdf:resource="http://purl.org/dc/dcmitype/StillImage" /><dc:title></dc:title></cc:Work></rdf:RDF></metadata><defs
   id="defs37" /><sodipodi:namedview
   pagecolor="#ffffff"
   bordercolor="#666666"
   borderopacity="1"
   objecttolerance="10"
   gridtolerance="10"
   guidetolerance="10"
   inkscape:pageopacity="0"
   inkscape:pageshadow="2"
   inkscape:window-width="1920"
   inkscape:window-height="1026"
   id="namedview35"
   showgrid="false"
   fit-margin-top="0"
   fit-margin-left="0"
   fit-margin-right="0"
   fit-margin-bottom="0"
   inkscape:zoom="5.255118"
   inkscape:cx="81.874512"
   inkscape:cy="14.813793"
   inkscape:window-x="0"
   inkscape:window-y="0"
   inkscape:window-maximized="1"
   inkscape:current-layer="Layer_1" />
<style
   type="text/css"
   id="style2">
	.st0{fill:#4D4D4D;}
</style>
<g
   id="g32"
   transform="scale(0.45830892)"
   style="stroke-width:1"
   inkscape:export-filename="/home/logan/Documents/jupiter/admin/graphics/jupiter_email_logo.png"
   inkscape:export-xdpi="90"
   inkscape:export-ydpi="90">
	<polygon
   class="st0"
   points="271.79,0 240.43,0 239.8,7.16 271.17,7.16 "
   id="polygon4"
   style="fill:#3b3b3b;fill-opacity:1;stroke-width:1" />
	<g
   id="g30"
   style="stroke-width:1">
		<path
   class="st0"
   d="M 91.21,0 88.5,30.89 c -0.54,6.13 -3.13,11.1 -7.86,14.77 -4.64,3.68 -11.11,5.48 -19.33,5.48 -8.22,0 -14.37,-1.81 -18.29,-5.48 -3.91,-3.68 -5.65,-8.51 -5.13,-14.38 L 40.64,0 h 10.21 l -2.72,30.96 c -0.69,7.8 5.03,12.7 14,12.7 9.38,0 15.47,-5.03 16.12,-12.45 L 81,0 Z"
   id="path6"
   inkscape:connector-curvature="0"
   style="fill:#3b3b3b;fill-opacity:1;stroke-width:1" />
		<path
   class="st0"
   d="m 158.95,0 h 10.21 l -4.43,50.49 h -10.21 z"
   id="path8"
   inkscape:connector-curvature="0"
   style="fill:#3b3b3b;fill-opacity:1;stroke-width:1" />
		<path
   class="st0"
   d="m 179.05,0 h 51.48 l -0.65,7.35 h -20.67 l -3.79,43.14 H 195.21 L 199,7.35 h -20.59 z"
   id="path10"
   inkscape:connector-curvature="0"
   style="fill:#3b3b3b;fill-opacity:1;stroke-width:1" />
		<g
   id="g16"
   style="stroke-width:1">
			<polygon
   class="st0"
   points="287.8,50.49 289.48,31.34 290.11,24.18 291.59,7.35 292.23,0 282.02,0 277.59,50.49 "
   id="polygon12"
   style="fill:#3b3b3b;fill-opacity:1;stroke-width:1" />
			<path
   class="st0"
   d="m 312.18,29.99 c 8.92,-2.26 14.44,-7.42 15.05,-14.45 0.39,-4.45 -1.12,-8.13 -4.42,-11.1 C 319.5,1.48 313.99,0 306.43,0 h -9.1 l -0.65,7.35 h 8.01 c 10.63,0 12.48,4.52 12.14,8.38 -0.41,4.65 -4.56,8.45 -13.61,8.45 h -8.01 l -0.63,7.16 h 7.27 l 12.43,19.16 h 11.54 z"
   id="path14"
   inkscape:connector-curvature="0"
   style="fill:#3b3b3b;fill-opacity:1;stroke-width:1" />
		</g>
		<g
   id="g22"
   style="stroke-width:1">
			<path
   class="st0"
   d="M 141.82,4.58 C 138.35,1.55 132.76,0 125.2,0 h -7.68 l -0.65,7.35 h 6.77 c 4.82,0 8.15,0.84 9.99,2.52 1.93,1.68 2.75,3.68 2.55,6 -0.41,4.64 -4.99,8.64 -14.04,8.64 h -6.77 l -0.64,7.28 h 6.44 c 7.56,0 13.5,-1.54 18,-4.58 4.51,-3.09 7,-6.96 7.41,-11.54 0.38,-4.32 -1.2,-8.06 -4.76,-11.09 z"
   id="path18"
   inkscape:connector-curvature="0"
   style="fill:#3b3b3b;fill-opacity:1;stroke-width:1" />
			<polygon
   class="st0"
   points="107.98,50.49 109.62,31.79 110.26,24.51 111.77,7.35 112.42,0 102.2,0 97.77,50.49 "
   id="polygon20"
   style="fill:#3b3b3b;fill-opacity:1;stroke-width:1" />
		</g>
		<path
   class="st0"
   d="M 19.44,0.01 16.7,31.22 C 16.05,38.61 9.99,43.63 0.66,43.66 L 0,51.13 C 8.09,51.09 14.49,49.3 19.08,45.66 23.8,41.98 26.4,37.02 26.94,30.89 L 29.65,0 H 19.44 Z"
   id="path24"
   inkscape:connector-curvature="0"
   style="fill:#3b3b3b;fill-opacity:1;stroke-width:1" />
		<polygon
   class="st0"
   points="267.69,50.49 268.33,43.27 236.63,43.27 236,50.49 "
   id="polygon26"
   style="fill:#3b3b3b;fill-opacity:1;stroke-width:1" />
		<polygon
   class="st0"
   points="237.94,28.37 269.3,28.37 269.93,21.22 238.57,21.22 "
   id="polygon28"
   style="fill:#3b3b3b;fill-opacity:1;stroke-width:1" />
	</g>
</g>
</svg>